<svg width="399" height="420" viewBox="0 0 399 420" fill="none" xmlns="http://www.w3.org/2000/svg">
<path d="M66.6407 136.848C66.6407 136.848 48.3992 145.526 46.8576 163.72C45.3161 181.915 91.4611 231.794 91.4611 231.794L218.022 152.165L171.584 82.0946L66.6407 136.848Z" fill="#C7DCF9"/>
<path d="M96.827 151.911C96.827 151.911 83.9648 167.032 80.7847 183.016C77.6046 199.001 78.9496 227.073 80.3634 237.526C102.266 255.213 182.674 233.732 182.674 233.732L254.971 136.063C254.971 136.063 239.955 111.687 232.73 105.214C225.504 98.741 203.018 91.6028 178.43 103.477C165.017 125.529 96.827 151.911 96.827 151.911Z" fill="#E1ECFF"/>
<g style="mix-blend-mode:multiply">
<path d="M91.1536 159.664C91.1536 159.664 122.301 167.392 155.726 151.821C189.151 136.25 192.851 98.4906 192.851 98.4906L178.414 103.484L96.827 151.912L91.1536 159.664Z" fill="#E1ECFF"/>
</g>
<path d="M222.991 265.832C222.991 265.832 261.555 263.48 272.573 265.517C283.591 267.553 316.636 330.504 328.917 335.916C341.199 341.328 350.579 330.33 363.132 321.787C375.684 313.243 387.037 303.164 387.151 299.269C387.265 295.374 380.671 280.287 375.66 277.491C370.648 274.695 356.693 275.414 349.578 280.678C336.645 251.649 318.184 209.288 303.538 204.274C288.891 199.259 245.533 199.326 245.533 199.326L222.991 265.832Z" fill="#E1ECFF"/>
<g style="mix-blend-mode:multiply" opacity="0.51">
<path d="M261.623 234.687C261.623 234.687 293.241 236.004 302.699 247.1C312.158 258.196 334.16 328.508 353.506 328.903C355.376 352.034 316.109 363.082 316.109 363.082L213.477 263.433L261.623 234.687Z" fill="#E1ECFF"/>
</g>
<path d="M119.033 266.962C119.033 266.962 146.089 315.078 168.501 327.189C190.913 339.299 229.788 335.575 241.13 343.731C252.473 351.886 253.079 394.698 264.578 405.274C276.078 415.85 291.654 421.754 305.691 419.528C319.727 417.303 330.57 409.766 330.285 403.401C329.999 397.036 329.06 391.562 322.195 388.619C315.329 385.677 305.79 383.485 305.121 379.56C304.452 375.635 292.887 315.97 288.669 299.825C284.452 283.681 258.73 262.563 226.786 253.206C195.601 230.48 150.977 244.126 150.977 244.126L119.033 266.962Z" fill="#E1ECFF"/>
<g style="mix-blend-mode:multiply">
<path d="M126.826 279.798C126.826 279.798 154.123 279.353 177.829 266.973C171.483 242.428 156.585 236.057 156.585 236.057L119.033 266.962L126.826 279.798Z" fill="#E1ECFF"/>
</g>
<path d="M146.959 17.6405C124.886 7.67256 79.9772 6.8363 54.7215 42.8763C29.4658 78.9162 45.5929 113.439 58.2871 129.161C71.582 145.663 115.051 169.321 157.863 141.461C200.675 113.6 200.52 41.8364 146.959 17.6405Z" fill="#E1ECFF"/>
<path d="M144.703 38.79C163.932 42.0338 178.015 67.757 173.374 93.6079C168.733 119.459 147.991 138.029 123.427 139.824C98.8627 141.619 73.2955 126.488 71.3117 95.1035C69.4105 64.9428 102.948 31.7498 144.703 38.79Z" fill="#1C3177"/>
<g style="mix-blend-mode:multiply">
<path d="M103.575 241.05C127.459 227.944 107.253 203.06 131.431 195.46C164.148 197.882 173 195.624 173 195.624C173 195.624 114.676 254.255 103.575 241.05Z" fill="#E1ECFF"/>
</g>
<path d="M119.406 169.78L167.56 272.599L225.515 267.301L276.353 230.106L288.934 181.017L242.747 68.3582L227.738 123.569L182.025 165.242L119.406 169.78Z" fill="#FF97C9"/>
<path d="M103.575 241.05C117.105 239.03 123.436 229.704 127.294 225.496C129.259 223.348 128.722 221.618 127.273 215.901C125.824 210.185 129.095 204.001 133.94 201.121C137.196 208.349 140.675 209.527 143.264 209.003C145.854 208.48 147.485 192.688 156.039 192.25C164.592 191.811 172.206 202.655 173.728 208.222C175.249 213.79 170.818 230.263 164.656 242.03C158.495 253.797 149.671 268.446 127.978 274.305C106.285 280.165 93.0261 269.78 84.8644 256.072C82.1105 251.445 80.7875 244.884 80.3673 237.504C80.3673 237.504 85.728 243.671 103.575 241.05Z" fill="#E1ECFF"/>
<path d="M258.654 107.159C258.654 107.159 261.846 115.499 260.306 118.936C258.766 122.374 256.548 125.281 255.071 129.65C253.593 134.019 257.286 149.861 265.239 152.088C273.191 154.314 279.132 146.682 280.902 142.376C282.671 138.071 280.798 127.206 277.246 119.782C273.695 112.358 267.527 105.963 258.654 107.159Z" fill="#E1ECFF"/>
<path d="M260.447 0.744805L262.427 4.15513C262.545 4.36187 262.713 4.53647 262.914 4.66376C263.116 4.79106 263.346 4.8672 263.583 4.88557L267.518 5.17395C267.793 5.1946 268.056 5.29195 268.279 5.45497C268.501 5.61798 268.674 5.84012 268.776 6.09616C268.879 6.3522 268.908 6.63189 268.859 6.90346C268.811 7.17502 268.688 7.4276 268.503 7.6325L265.872 10.5786C265.712 10.7561 265.598 10.97 265.539 11.2016C265.48 11.4333 265.479 11.6758 265.535 11.9081L266.457 15.722C266.522 15.9894 266.511 16.2697 266.425 16.5312C266.339 16.7927 266.182 17.0249 265.971 17.2016C265.76 17.3783 265.503 17.4924 265.231 17.531C264.958 17.5697 264.681 17.5313 264.429 17.4203L260.816 15.8256C260.598 15.7283 260.359 15.6858 260.121 15.7019C259.883 15.718 259.652 15.7921 259.449 15.9178L256.083 17.9832C255.849 18.1285 255.578 18.2051 255.302 18.2042C255.026 18.2033 254.755 18.1249 254.521 17.978C254.288 17.8311 254.1 17.6215 253.979 17.3731C253.859 17.1247 253.81 16.8475 253.84 16.573L254.246 12.6694C254.271 12.4317 254.237 12.1916 254.148 11.9699C254.059 11.7482 253.917 11.5516 253.734 11.3972L250.732 8.83105C250.521 8.6528 250.365 8.4191 250.28 8.15648C250.196 7.89387 250.187 7.61285 250.254 7.34535C250.322 7.07785 250.463 6.83457 250.661 6.64316C250.86 6.45174 251.108 6.31986 251.378 6.26246L255.238 5.44841C255.471 5.39829 255.688 5.29201 255.871 5.13879C256.054 4.98558 256.196 4.79008 256.286 4.56927L257.79 0.923991C257.894 0.666646 258.069 0.443845 258.294 0.281045C258.519 0.118246 258.785 0.0220079 259.062 0.00332044C259.339 -0.015367 259.616 0.044249 259.861 0.175363C260.106 0.306477 260.309 0.503809 260.447 0.744805Z" fill="#FEC272"/>
<path d="M99.1372 386.658L100.798 389.52C100.897 389.694 101.037 389.84 101.207 389.947C101.376 390.053 101.569 390.116 101.769 390.13L105.07 390.383C105.3 390.401 105.52 390.483 105.706 390.62C105.892 390.757 106.036 390.943 106.122 391.157C106.208 391.371 106.232 391.605 106.192 391.832C106.152 392.06 106.049 392.271 105.895 392.443L103.686 394.907C103.55 395.057 103.454 395.238 103.405 395.435C103.357 395.631 103.357 395.837 103.407 396.033L104.178 399.248C104.231 399.472 104.221 399.707 104.148 399.926C104.076 400.145 103.944 400.339 103.767 400.487C103.59 400.635 103.376 400.731 103.147 400.764C102.919 400.798 102.686 400.767 102.475 400.675L99.4495 399.334C99.2663 399.254 99.0664 399.219 98.8668 399.232C98.6671 399.246 98.4737 399.307 98.303 399.411L95.4955 401.135C95.2984 401.256 95.0713 401.32 94.8398 401.319C94.6084 401.317 94.3819 401.251 94.1862 401.128C93.9904 401.004 93.8332 400.828 93.7324 400.62C93.6316 400.412 93.5912 400.179 93.6159 399.949L93.9478 396.66C93.9685 396.458 93.9399 396.255 93.8645 396.067C93.7892 395.879 93.6693 395.713 93.5152 395.581L91.0005 393.436C90.8248 393.287 90.6945 393.091 90.6242 392.871C90.554 392.651 90.5466 392.416 90.6029 392.192C90.6593 391.969 90.777 391.765 90.943 391.605C91.1089 391.444 91.3164 391.333 91.542 391.285L94.7733 390.591C94.9697 390.549 95.1531 390.461 95.3076 390.333C95.462 390.205 95.5828 390.041 95.6595 389.855L96.9206 386.797C97.0095 386.583 97.1564 386.399 97.3447 386.265C97.533 386.131 97.7551 386.052 97.9858 386.037C98.2166 386.023 98.4468 386.074 98.6503 386.183C98.8538 386.293 99.0225 386.458 99.1372 386.658Z" fill="#FEC272"/>
<g style="mix-blend-mode:soft-light" opacity="0.48">
<path d="M130.323 71.5981C143.687 67.6932 153.401 60.6956 152.019 55.9686C150.638 51.2416 138.685 50.5752 125.321 54.4801C111.957 58.3851 102.243 65.3826 103.624 70.1096C105.006 74.8366 116.959 75.5031 130.323 71.5981Z" fill="white"/>
</g>
<g style="mix-blend-mode:multiply">
<path d="M171.654 224.265C171.654 224.265 155.108 211.371 152.28 211.562C149.453 211.753 142.666 223.285 144.561 226.092C146.456 228.899 155.822 237.88 165.595 240.178C168.299 234.049 171.654 224.265 171.654 224.265Z" fill="#E1ECFF"/>
</g>
<g style="mix-blend-mode:multiply" opacity="0.5">
<path d="M182.026 165.242L225.516 267.301L276.353 230.106L227.738 123.569L182.026 165.242Z" fill="#FF97C9"/>
</g>
<g style="mix-blend-mode:multiply">
<path d="M293.141 319.58C287.984 324.473 282.091 328.528 275.678 331.594C269.659 334.392 267.899 339.406 270.371 348.221C272.842 357.035 274.83 370.905 278.936 374.316C283.042 377.727 296.184 374.88 302.487 365.884C299.198 349.217 293.141 319.58 293.141 319.58Z" fill="#E1ECFF"/>
</g>
<g style="mix-blend-mode:multiply">
<path d="M322.96 225.999C322.96 225.999 315.47 229.882 316.565 235.196C317.66 240.51 327.29 265.902 330.557 268.029C333.823 270.157 342.744 265.391 342.744 265.391C331.491 239.261 322.96 225.999 322.96 225.999Z" fill="#E1ECFF"/>
</g>
<path d="M1.48325 309.997C-5.50985 297.688 13.5647 282.725 30.6415 282.559C47.7183 282.393 55.9268 297.615 62.3468 303.068C75.7557 314.445 76.1656 326.433 67.7976 332.164C59.4297 337.895 10.7377 326.278 1.48325 309.997Z" fill="#99ADF9"/>
<path d="M331.359 89.7636C326.105 85.7546 329.832 64.9931 341.229 59.4237C352.625 53.8542 367.53 58.0984 371.191 66.0798C374.852 74.0613 342.129 97.9744 331.359 89.7636Z" fill="#99ADF9"/>
<path d="M389.522 96.8159C387.225 100.609 386.228 111.036 391.715 112.51C397.202 113.984 400.544 103.099 398.286 97.7032C396.028 92.3071 391.056 94.2815 389.522 96.8159Z" fill="#99ADF9"/>
<path opacity="0.44" d="M387.736 12.8638C383.861 15.0189 377.809 23.5668 381.845 27.5749C385.881 31.5831 394.176 23.7919 394.898 17.99C395.619 12.1881 390.324 11.4267 387.736 12.8638Z" fill="#99ADF9"/>
<path opacity="0.44" d="M33.2388 361.628C29.5912 359.105 19.2522 357.449 17.4339 362.837C15.6157 368.226 26.2722 372.208 31.7817 370.32C37.2913 368.431 35.667 363.313 33.2388 361.628Z" fill="#99ADF9"/>
<g style="mix-blend-mode:multiply" opacity="0.64">
<path d="M59.0965 299.782C53.0175 301.355 54.3811 306.795 56.6909 311.65C59.0007 316.505 66.042 317.459 70.6349 312.57C66.9439 305.216 59.0965 299.782 59.0965 299.782Z" fill="#99ADF9"/>
</g>
<g style="mix-blend-mode:multiply" opacity="0.64">
<path d="M23.1421 293.862C18.7654 294.65 15.602 301.276 19.0599 306.242C22.5179 311.208 28.6978 314.579 31.9926 312.939C35.2875 311.299 35.3407 303.632 32.5632 298.902C29.7856 294.173 27.349 293.102 23.1421 293.862Z" fill="#99ADF9"/>
</g>
<g style="mix-blend-mode:multiply" opacity="0.64">
<path d="M357.147 62.7691C354.779 63.704 352.503 66.4877 352.908 69.301C353.314 72.1142 355.95 74.4172 358.606 73.9002C361.262 73.3833 363.253 68.9023 362.492 65.8306C361.731 62.7589 358.954 62.0602 357.147 62.7691Z" fill="#99ADF9"/>
</g>
<g style="mix-blend-mode:multiply" opacity="0.64">
<path d="M331.892 70.0094C331.892 70.0094 335.423 73.0937 335.125 76.8847C334.827 80.6756 329.103 80.7128 329.103 80.7128C329.103 80.7128 329.521 74.2559 331.892 70.0094Z" fill="#99ADF9"/>
</g>
</svg>
