<svg width="187" height="36" viewBox="0 0 187 36" fill="none" xmlns="http://www.w3.org/2000/svg">
<g filter="url(#filter0_b_0_7)">
<circle cx="169" cy="18" r="18" fill="white" fill-opacity="0.29"/>
</g>
<g filter="url(#filter1_b_0_7)">
<ellipse cx="118.5" cy="18" rx="18.5" ry="18" fill="white" fill-opacity="0.29"/>
</g>
<g filter="url(#filter2_b_0_7)">
<ellipse cx="68.5" cy="18" rx="18.5" ry="18" fill="white" fill-opacity="0.29"/>
</g>
<g filter="url(#filter3_b_0_7)">
<circle cx="18" cy="18" r="18" fill="white" fill-opacity="0.29"/>
</g>
<path d="M168.874 24.217C168.873 24.217 168.872 24.217 168.87 24.217C168.36 24.2135 163.847 24.1724 162.569 23.8266C161.675 23.5864 160.97 22.8819 160.729 21.9883C160.394 20.7324 160.416 18.3144 160.418 18.1214C160.416 17.9292 160.394 15.4912 160.728 14.225C160.728 14.2239 160.729 14.2226 160.729 14.2214C160.967 13.338 161.688 12.6116 162.566 12.3708C162.569 12.3702 162.571 12.3697 162.573 12.369C163.837 12.0368 168.358 11.9962 168.87 11.9927H168.879C169.391 11.9962 173.915 12.0373 175.182 12.3836C176.073 12.6231 176.778 13.3268 177.019 14.2192C177.367 15.4863 177.334 17.9296 177.331 18.1358C177.333 18.339 177.354 20.7352 177.021 21.9974C177.021 21.9987 177.02 21.9999 177.02 22.001C176.779 22.8947 176.074 23.5992 175.179 23.8396C175.178 23.84 175.177 23.8403 175.176 23.8407C173.912 24.1727 169.39 24.2134 168.879 24.217C168.878 24.217 168.876 24.217 168.874 24.217ZM162.005 14.5639C161.712 15.6816 161.739 18.0885 161.74 18.1127V18.1301C161.731 18.7976 161.762 20.7307 162.005 21.6463C162.124 22.0847 162.472 22.432 162.913 22.5506C163.856 22.8057 167.531 22.886 168.874 22.8954C170.221 22.886 173.902 22.8079 174.838 22.563C175.278 22.444 175.625 22.0978 175.744 21.6589C175.988 20.7299 176.018 18.8063 176.009 18.143C176.009 18.1361 176.009 18.1291 176.009 18.1221C176.022 17.4466 175.998 15.491 175.745 14.5681C175.744 14.5672 175.744 14.5663 175.744 14.5654C175.625 14.125 175.277 13.7777 174.836 13.6591C173.902 13.4037 170.221 13.3237 168.874 13.3143C167.529 13.3237 163.852 13.4016 162.912 13.6463C162.48 13.7664 162.124 14.126 162.005 14.5639ZM176.382 21.8291H176.382H176.382ZM167.19 20.7809V15.4286L171.816 18.1048L167.19 20.7809Z" fill="white"/>
<path d="M126.414 14.8831C126.378 14.0521 126.243 13.4808 126.051 12.9857C125.852 12.4602 125.547 11.9898 125.147 11.5987C124.755 11.2015 124.282 10.8929 123.762 10.6974C123.265 10.5049 122.696 10.3705 121.865 10.3338C121.028 10.2941 120.762 10.2849 118.639 10.2849C116.515 10.2849 116.25 10.2941 115.416 10.3307C114.585 10.3674 114.013 10.5019 113.518 10.6943C112.993 10.8929 112.522 11.1984 112.131 11.5987C111.734 11.9898 111.425 12.4633 111.23 12.9827C111.037 13.4808 110.903 14.049 110.866 14.88C110.827 15.7172 110.817 15.983 110.817 18.1064C110.817 20.2298 110.827 20.4956 110.863 21.3297C110.9 22.1607 111.034 22.732 111.227 23.227C111.425 23.7525 111.734 24.223 112.131 24.6141C112.522 25.0113 112.996 25.3199 113.515 25.5154C114.013 25.7079 114.581 25.8423 115.413 25.8789C116.247 25.9157 116.512 25.9247 118.636 25.9247C120.759 25.9247 121.025 25.9157 121.859 25.8789C122.69 25.8423 123.261 25.7079 123.756 25.5154C124.807 25.109 125.639 24.278 126.045 23.227C126.237 22.729 126.372 22.1607 126.408 21.3297C126.445 20.4956 126.454 20.2298 126.454 18.1064C126.454 15.983 126.451 15.7172 126.414 14.8831ZM125.006 21.2686C124.972 22.0324 124.844 22.4449 124.737 22.7198C124.474 23.4012 123.934 23.9419 123.252 24.2047C122.977 24.3117 122.562 24.44 121.801 24.4735C120.976 24.5103 120.729 24.5193 118.642 24.5193C116.555 24.5193 116.305 24.5103 115.483 24.4735C114.719 24.44 114.306 24.3117 114.031 24.2047C113.692 24.0794 113.384 23.8808 113.133 23.6211C112.874 23.3675 112.675 23.062 112.55 22.7229C112.443 22.448 112.314 22.0324 112.281 21.2717C112.244 20.4468 112.235 20.1992 112.235 18.1125C112.235 16.0257 112.244 15.7752 112.281 14.9534C112.314 14.1896 112.443 13.7771 112.55 13.5021C112.675 13.1629 112.874 12.8544 113.136 12.6038C113.39 12.3441 113.695 12.1455 114.035 12.0203C114.31 11.9134 114.725 11.7851 115.486 11.7514C116.311 11.7148 116.558 11.7056 118.645 11.7056C120.735 11.7056 120.982 11.7148 121.804 11.7514C122.568 11.7851 122.98 11.9134 123.255 12.0203C123.594 12.1455 123.903 12.3441 124.154 12.6038C124.413 12.8574 124.612 13.1629 124.737 13.5021C124.844 13.7771 124.972 14.1925 125.006 14.9534C125.043 15.7783 125.052 16.0257 125.052 18.1125C125.052 20.1992 125.043 20.4437 125.006 21.2686Z" fill="white"/>
<path d="M118.639 14.089C116.421 14.089 114.621 15.8885 114.621 18.1067C114.621 20.3248 116.421 22.1243 118.639 22.1243C120.857 22.1243 122.656 20.3248 122.656 18.1067C122.656 15.8885 120.857 14.089 118.639 14.089ZM118.639 20.7128C117.2 20.7128 116.033 19.5457 116.033 18.1067C116.033 16.6676 117.2 15.5005 118.639 15.5005C120.078 15.5005 121.245 16.6676 121.245 18.1067C121.245 19.5457 120.078 20.7128 118.639 20.7128Z" fill="white"/>
<path d="M123.753 13.9296C123.753 14.4476 123.333 14.8676 122.815 14.8676C122.297 14.8676 121.877 14.4476 121.877 13.9296C121.877 13.4116 122.297 12.9917 122.815 12.9917C123.333 12.9917 123.753 13.4116 123.753 13.9296Z" fill="white"/>
<path d="M21.015 12.0892H22.6594V9.22523C22.3757 9.1862 21.4001 9.09839 20.2638 9.09839C17.8928 9.09839 16.2687 10.5897 16.2687 13.3306V15.8531H13.6523V19.0549H16.2687V27.1111H19.4764V19.0557H21.987L22.3855 15.8539H19.4757V13.6481C19.4764 12.7227 19.7256 12.0892 21.015 12.0892Z" fill="white"/>
<path d="M76.1779 13.2793C75.5992 13.5331 74.9824 13.7014 74.3395 13.7831C75.0009 13.3882 75.5058 12.7676 75.7431 12.0196C75.1264 12.3873 74.4455 12.647 73.7198 12.7919C73.1343 12.1684 72.2997 11.7822 71.3892 11.7822C69.6227 11.7822 68.2006 13.216 68.2006 14.9738C68.2006 15.2267 68.222 15.4698 68.2745 15.7014C65.6219 15.572 63.2747 14.3006 61.6979 12.3639C61.4226 12.8415 61.2611 13.3882 61.2611 13.9767C61.2611 15.0817 61.8302 16.0613 62.6784 16.6284C62.1658 16.6186 61.6629 16.4698 61.2368 16.2354C61.2368 16.2451 61.2368 16.2578 61.2368 16.2704C61.2368 17.8209 62.3428 19.1088 63.7931 19.4055C63.5334 19.4765 63.2504 19.5106 62.9566 19.5106C62.7523 19.5106 62.5461 19.4989 62.3525 19.4561C62.7659 20.7197 63.939 21.6486 65.3339 21.6788C64.2484 22.528 62.87 23.0396 61.3779 23.0396C61.1162 23.0396 60.8652 23.028 60.6143 22.9959C62.0276 23.9073 63.7027 24.4277 65.509 24.4277C71.3804 24.4277 74.5904 19.5641 74.5904 15.3483C74.5904 15.2072 74.5856 15.071 74.5788 14.9358C75.212 14.4864 75.7441 13.9251 76.1779 13.2793Z" fill="white"/>
<defs>
<filter id="filter0_b_0_7" x="141" y="-10" width="56" height="56" filterUnits="userSpaceOnUse" color-interpolation-filters="sRGB">
<feFlood flood-opacity="0" result="BackgroundImageFix"/>
<feGaussianBlur in="BackgroundImageFix" stdDeviation="5"/>
<feComposite in2="SourceAlpha" operator="in" result="effect1_backgroundBlur_0_7"/>
<feBlend mode="normal" in="SourceGraphic" in2="effect1_backgroundBlur_0_7" result="shape"/>
</filter>
<filter id="filter1_b_0_7" x="90" y="-10" width="57" height="56" filterUnits="userSpaceOnUse" color-interpolation-filters="sRGB">
<feFlood flood-opacity="0" result="BackgroundImageFix"/>
<feGaussianBlur in="BackgroundImageFix" stdDeviation="5"/>
<feComposite in2="SourceAlpha" operator="in" result="effect1_backgroundBlur_0_7"/>
<feBlend mode="normal" in="SourceGraphic" in2="effect1_backgroundBlur_0_7" result="shape"/>
</filter>
<filter id="filter2_b_0_7" x="40" y="-10" width="57" height="56" filterUnits="userSpaceOnUse" color-interpolation-filters="sRGB">
<feFlood flood-opacity="0" result="BackgroundImageFix"/>
<feGaussianBlur in="BackgroundImageFix" stdDeviation="5"/>
<feComposite in2="SourceAlpha" operator="in" result="effect1_backgroundBlur_0_7"/>
<feBlend mode="normal" in="SourceGraphic" in2="effect1_backgroundBlur_0_7" result="shape"/>
</filter>
<filter id="filter3_b_0_7" x="-10" y="-10" width="56" height="56" filterUnits="userSpaceOnUse" color-interpolation-filters="sRGB">
<feFlood flood-opacity="0" result="BackgroundImageFix"/>
<feGaussianBlur in="BackgroundImageFix" stdDeviation="5"/>
<feComposite in2="SourceAlpha" operator="in" result="effect1_backgroundBlur_0_7"/>
<feBlend mode="normal" in="SourceGraphic" in2="effect1_backgroundBlur_0_7" result="shape"/>
</filter>
</defs>
</svg>
