<svg width="188" height="181" viewBox="0 0 188 181" fill="none" xmlns="http://www.w3.org/2000/svg">
<g filter="url(#filter0_d_97_3822)">
<path d="M180.742 55.7634C199.851 99.45 179.927 150.356 136.24 169.465C92.5538 188.574 41.648 168.65 22.5391 124.963C3.4302 81.2764 23.3543 30.3706 67.0409 11.2616C110.727 -7.84726 161.633 12.0769 180.742 55.7634Z" fill="url(#paint0_linear_97_3822)"/>
<path d="M67.2738 65.1208C70.2142 71.8416 67.1497 79.6735 60.4289 82.6139C53.7081 85.5543 45.8762 82.4898 42.9358 75.769C39.9954 69.0483 43.0599 61.2164 49.7807 58.2759C56.5015 55.3355 64.3334 58.4001 67.2738 65.1208Z" fill="url(#paint1_linear_97_3822)"/>
<path d="M148.395 29.9524C150.083 31.9107 149.764 34.4715 147.683 35.6721C145.601 36.8727 142.545 36.2585 140.857 34.3002C139.168 32.3419 139.487 29.7811 141.569 28.5805C143.65 27.3798 146.706 27.994 148.395 29.9524Z" fill="url(#paint2_linear_97_3822)"/>
<path d="M178.9 92.0049C181.527 92.9199 182.632 96.609 181.366 100.245C180.1 103.88 176.943 106.086 174.315 105.171C171.687 104.256 170.583 100.567 171.849 96.9312C173.115 93.2955 176.272 91.0899 178.9 92.0049Z" fill="url(#paint3_linear_97_3822)"/>
<path d="M99.119 7.14678C99.2886 8.62895 96.3254 10.1853 92.5005 10.6229C88.6757 11.0606 85.4375 10.2138 85.2679 8.73165C85.0983 7.24948 88.0615 5.69316 91.8864 5.25551C95.7112 4.81785 98.9494 5.66461 99.119 7.14678Z" fill="url(#paint4_linear_97_3822)"/>
<path d="M131.525 139.967C133.38 149.627 125.593 159.242 114.133 161.443C102.672 163.644 91.8775 157.597 90.0223 147.938C88.1671 138.278 95.9539 128.663 107.415 126.462C118.875 124.261 129.67 130.307 131.525 139.967Z" fill="url(#paint5_linear_97_3822)"/>
<path d="M72.5095 7.80432C73.0854 8.98312 69.6519 11.8444 64.8405 14.1951C60.0291 16.5458 55.6618 17.4958 55.0858 16.317C54.5099 15.1382 57.9434 12.277 62.7548 9.92625C67.5663 7.57554 71.9336 6.62551 72.5095 7.80432Z" fill="#C00C14"/>
<path d="M73.2661 9.35326C74.2599 11.3874 71.1652 14.942 66.3537 17.2927C61.5423 19.6434 56.8362 19.9001 55.8423 17.8659C54.8485 15.8318 57.9433 12.2772 62.7547 9.92648C67.5662 7.57577 72.2723 7.31913 73.2661 9.35326Z" fill="#C00C14"/>
<path d="M69.7552 8.04827C69.9228 8.39126 67.3269 10.0039 63.9572 11.6503C60.5874 13.2966 57.7199 14.3532 57.5523 14.0102C57.3847 13.6672 59.9806 12.0546 63.3503 10.4082C66.7201 8.76187 69.5876 7.70529 69.7552 8.04827Z" fill="#400003"/>
<path d="M12.3134 103.091C14.3559 102.469 18.0696 108.723 20.6081 117.06C23.1466 125.396 23.5487 132.659 21.5062 133.281C19.4637 133.902 15.7501 127.648 13.2116 119.312C10.673 110.975 10.2709 103.713 12.3134 103.091Z" fill="url(#paint6_linear_97_3822)"/>
<path d="M14.9964 102.273C18.5209 101.2 23.436 107.088 25.9745 115.425C28.513 123.762 27.7137 131.39 24.1892 132.463C20.6647 133.536 15.7497 127.648 13.2111 119.311C10.6726 110.975 11.4719 103.347 14.9964 102.273Z" fill="url(#paint7_linear_97_3822)"/>
<path d="M11.9964 107.578C12.5907 107.397 14.5138 111.984 16.2917 117.823C18.0696 123.661 19.0291 128.541 18.4348 128.722C17.8405 128.903 15.9175 124.317 14.1396 118.478C12.3617 112.639 11.4021 107.759 11.9964 107.578Z" fill="#400104"/>
<path d="M85.1356 173.697C85.2156 172.566 92.34 171.79 101.048 171.963C109.757 172.136 116.752 173.193 116.672 174.323C116.592 175.454 109.467 176.23 100.759 176.057C92.0504 175.884 85.0556 174.828 85.1356 173.697Z" fill="url(#paint8_linear_97_3822)"/>
<path d="M85.241 172.211C85.379 170.26 92.5504 168.818 101.259 168.991C109.967 169.164 116.915 170.886 116.777 172.838C116.639 174.789 109.468 176.23 100.759 176.057C92.0508 175.884 85.1031 174.162 85.241 172.211Z" fill="url(#paint9_linear_97_3822)"/>
<path d="M89.2721 174.633C89.2954 174.304 94.2585 174.136 100.358 174.257C106.457 174.378 111.382 174.743 111.359 175.072C111.336 175.401 106.372 175.569 100.273 175.448C94.1743 175.327 89.2488 174.962 89.2721 174.633Z" fill="#340505"/>
<path d="M174.844 138.806C173.146 138.033 174.328 131.79 177.483 124.862C180.638 117.934 184.572 112.944 186.269 113.717C187.967 114.49 186.785 120.733 183.63 127.661C180.475 134.589 176.541 139.579 174.844 138.806Z" fill="url(#paint10_linear_97_3822)"/>
<path d="M172.613 137.791C169.684 136.457 169.867 129.76 173.022 122.832C176.177 115.903 181.11 111.368 184.039 112.702C186.968 114.036 186.784 120.734 183.629 127.662C180.474 134.59 175.542 139.125 172.613 137.791Z" fill="url(#paint11_linear_97_3822)"/>
<path d="M177.644 136.051C177.15 135.826 178.541 131.71 180.751 126.858C182.961 122.005 185.152 118.254 185.646 118.479C186.14 118.704 184.749 122.82 182.54 127.672C180.33 132.524 178.138 136.275 177.644 136.051Z" fill="#E8B5BC"/>
<path d="M175.303 42.654C174.343 43.3086 171.399 40.6622 168.727 36.743C166.055 32.8238 164.668 29.116 165.628 28.4614C166.588 27.8069 169.533 30.4533 172.204 34.3725C174.876 38.2917 176.264 41.9995 175.303 42.654Z" fill="url(#paint12_linear_97_3822)"/>
<path d="M174.042 43.5137C172.385 44.6432 168.876 42.3818 166.204 38.4628C163.532 34.5437 162.71 30.451 164.367 29.3215C166.024 28.192 169.533 30.4533 172.204 34.3724C174.876 38.2915 175.699 42.3842 174.042 43.5137Z" fill="url(#paint13_linear_97_3822)"/>
<path d="M174.74 40.2708C174.46 40.4612 172.717 38.3905 170.846 35.6458C168.974 32.901 167.684 30.5215 167.963 30.331C168.243 30.1406 169.986 32.2113 171.857 34.9561C173.729 37.7008 175.019 40.0803 174.74 40.2708Z" fill="#3D0002"/>
<path d="M121.518 78.7467C121.518 83.3316 117.801 87.0484 113.217 87.0484C108.632 87.0484 104.915 83.3316 104.915 78.7467C104.915 74.1618 108.632 70.445 113.217 70.445C117.801 70.445 121.518 74.1618 121.518 78.7467Z" fill="#91080D"/>
<path d="M49.7918 139.406C47.7076 141.201 43.5921 139.841 40.5995 136.367C37.607 132.894 36.8706 128.622 38.9548 126.826C41.039 125.031 45.1545 126.391 48.147 129.865C51.1396 133.339 51.8759 137.61 49.7918 139.406Z" fill="#79080D"/>
<path d="M114.877 22.2952C114.877 25.0462 111.161 27.2762 106.576 27.2762C101.991 27.2762 98.2739 25.0462 98.2739 22.2952C98.2739 19.5443 101.991 17.3143 106.576 17.3143C111.161 17.3143 114.877 19.5443 114.877 22.2952Z" fill="#BD0C14"/>
<path d="M163.869 127.329C165.677 129.402 164.343 133.526 160.888 136.54C157.433 139.554 153.166 140.318 151.358 138.245C149.549 136.172 150.884 132.048 154.338 129.034C157.793 126.019 162.06 125.256 163.869 127.329Z" fill="#580508"/>
</g>
<defs>
<filter id="filter0_d_97_3822" x="0" y="0" width="188" height="180.726" filterUnits="userSpaceOnUse" color-interpolation-filters="sRGB">
<feFlood flood-opacity="0" result="BackgroundImageFix"/>
<feColorMatrix in="SourceAlpha" type="matrix" values="0 0 0 0 0 0 0 0 0 0 0 0 0 0 0 0 0 0 127 0" result="hardAlpha"/>
<feOffset dx="-7"/>
<feGaussianBlur stdDeviation="2"/>
<feColorMatrix type="matrix" values="0 0 0 0 0 0 0 0 0 0 0 0 0 0 0 0 0 0 0.4 0"/>
<feBlend mode="normal" in2="BackgroundImageFix" result="effect1_dropShadow_97_3822"/>
<feBlend mode="normal" in="SourceGraphic" in2="effect1_dropShadow_97_3822" result="shape"/>
</filter>
<linearGradient id="paint0_linear_97_3822" x1="67.0409" y1="11.2618" x2="136.24" y2="169.465" gradientUnits="userSpaceOnUse">
<stop stop-color="#C50D15"/>
<stop offset="1" stop-color="#280001"/>
</linearGradient>
<linearGradient id="paint1_linear_97_3822" x1="49.7807" y1="58.2759" x2="60.4289" y2="82.6139" gradientUnits="userSpaceOnUse">
<stop stop-color="#1F0406"/>
<stop offset="1" stop-color="#A8111A"/>
</linearGradient>
<linearGradient id="paint2_linear_97_3822" x1="141.569" y1="28.5803" x2="146.164" y2="36.5477" gradientUnits="userSpaceOnUse">
<stop stop-color="#190306"/>
<stop offset="1" stop-color="#E0131F"/>
</linearGradient>
<linearGradient id="paint3_linear_97_3822" x1="171.849" y1="96.9311" x2="181.366" y2="100.245" gradientUnits="userSpaceOnUse">
<stop stop-color="#2E0508"/>
<stop offset="1" stop-color="#7D060D"/>
</linearGradient>
<linearGradient id="paint4_linear_97_3822" x1="91.8864" y1="5.25536" x2="92.5006" y2="10.6228" gradientUnits="userSpaceOnUse">
<stop stop-color="#420609"/>
<stop offset="1" stop-color="#DF131E"/>
</linearGradient>
<linearGradient id="paint5_linear_97_3822" x1="107.415" y1="126.462" x2="114.133" y2="161.442" gradientUnits="userSpaceOnUse">
<stop stop-color="#150305"/>
<stop offset="1" stop-color="#70090F"/>
</linearGradient>
<linearGradient id="paint6_linear_97_3822" x1="21.898" y1="133.537" x2="13.5963" y2="101.991" gradientUnits="userSpaceOnUse">
<stop stop-color="#6F060A"/>
<stop offset="1" stop-color="#8C080E"/>
</linearGradient>
<linearGradient id="paint7_linear_97_3822" x1="24.789" y1="132.657" x2="15.9768" y2="101.232" gradientUnits="userSpaceOnUse">
<stop stop-color="#6F060A"/>
<stop offset="1" stop-color="#8C080E"/>
</linearGradient>
<linearGradient id="paint8_linear_97_3822" x1="118.198" y1="173.66" x2="85.0762" y2="175.342" gradientUnits="userSpaceOnUse">
<stop stop-color="#2A0001"/>
<stop offset="1" stop-color="#360103"/>
</linearGradient>
<linearGradient id="paint9_linear_97_3822" x1="118.339" y1="171.671" x2="85.0981" y2="171.663" gradientUnits="userSpaceOnUse">
<stop stop-color="#2A0001"/>
<stop offset="1" stop-color="#360103"/>
</linearGradient>
<linearGradient id="paint10_linear_97_3822" x1="174.65" y1="138.518" x2="186.272" y2="113.613" gradientUnits="userSpaceOnUse">
<stop stop-color="#380103"/>
<stop offset="1" stop-color="#470205"/>
</linearGradient>
<linearGradient id="paint11_linear_97_3822" x1="172.223" y1="137.414" x2="183.749" y2="112.463" gradientUnits="userSpaceOnUse">
<stop stop-color="#380103"/>
<stop offset="1" stop-color="#470205"/>
</linearGradient>
<linearGradient id="paint12_linear_97_3822" x1="164.687" y1="27.276" x2="176.31" y2="42.219" gradientUnits="userSpaceOnUse">
<stop stop-color="#92090E"/>
<stop offset="1" stop-color="#82070C"/>
</linearGradient>
<linearGradient id="paint13_linear_97_3822" x1="163.36" y1="28.181" x2="174.599" y2="43.4447" gradientUnits="userSpaceOnUse">
<stop stop-color="#92090E"/>
<stop offset="1" stop-color="#82070C"/>
</linearGradient>
</defs>
</svg>
